<?xml version="1.0" encoding="utf-8"?>
<!-- Generator: Adobe Illustrator 17.1.0, SVG Export Plug-In . SVG Version: 6.00 Build 0)  -->
<!DOCTYPE svg PUBLIC "-//W3C//DTD SVG 1.1//EN" "http://www.w3.org/Graphics/SVG/1.1/DTD/svg11.dtd">
<svg version="1.1" id="Layer_1" xmlns="http://www.w3.org/2000/svg" xmlns:xlink="http://www.w3.org/1999/xlink" x="0px" y="0px"
	 viewBox="0 0 794 117.6" enable-background="new 0 0 794 117.6" xml:space="preserve">
<g>
	<g>
		<path fill="#FFFFFF" d="M108.8,0.3c0,4.6,0,8.3,0,13.1c-17,0-33.7-0.2-50.4,0.1C39.5,13.8,25.8,23,17.9,39.9
			C9.9,56.8,11.7,73.2,23.3,88c8.2,10.5,19.4,16.2,32.8,16.4c12.9,0.2,25.8,0,39.3,0c0-4.4,0-8.4,0-13.3c-11.7,0-23.5,0.1-35.2,0
			C39.5,91.1,25,78.3,24.8,60c-0.1-19.4,14.5-33.3,35.2-33.4c15.9-0.1,31.9-0.1,48.4-0.1c0,13.2,0,25.9,0.1,39.2
			c-17.8,0-35.5,0.1-53.7,0.1c0-3.9,0-7.7,0-12.3c13.2,0,26.5,0,40.5-0.1c0-4.8,0-8.7,0-13.5c-13.5,0-27.3-0.6-40.9,0.3
			c-9.8,0.6-17,10.8-16.3,20.7c0.7,9.3,8.2,16.6,18.3,16.8c14.3,0.3,28.6,0.1,43,0.1c3,0,6,0,9.4,0c0,13.2,0,25.8,0.1,39.7
			c-6,0-12.2,0.2-18.4,0c-15.1-0.4-30.5,0.8-45.3-1.7C17,111-1.7,84.6,0.1,55.3C1.9,26.7,24.7,2.2,52.6,0.6
			C71-0.5,89.5,0.3,108.8,0.3z"/>
	</g>
	<g>
		<path fill="#FFFFFF" d="M190.7,37.9h25.8v8.7h-15.7v7.5h12.6v8.6h-12.6v7.8h16.6v8.7h-26.6V37.9z"/>
		<path fill="#FFFFFF" d="M240.6,37.9h11l7.3,23.5c0.8,2.6,1.6,6.6,1.6,6.6h0.1c0,0,0.8-4,1.6-6.6l7.4-23.5h10.8l-14.5,41.2h-10.5
			L240.6,37.9z"/>
		<path fill="#FFFFFF" d="M305.8,37.9h25.8v8.7h-15.7v7.5h12.6v8.6h-12.6v7.8h16.6v8.7h-26.6V37.9z"/>
		<path fill="#FFFFFF" d="M360.9,37.9h10.2l11.4,19.3c1.6,2.7,3.5,7,3.5,7h0.1c0,0-0.5-4.4-0.5-7V37.9h10.1v41.2h-10.2L374.1,60
			c-1.6-2.7-3.5-7-3.5-7h-0.1c0,0,0.5,4.4,0.5,7v19.2h-10.1V37.9z"/>
		<path fill="#FFFFFF" d="M434.5,46.6H422v-8.7h35.1v8.7h-12.5v32.6h-10.1V46.6z"/>
		<path fill="#FFFFFF" d="M502,37.7c9.8,0,14.8,5.4,14.8,5.4l-2.8,4.3c0,0-4.7-4.4-11.8-4.4c-9.1,0-15.1,6.9-15.1,15.6
			c0,8.7,6.1,16.1,15.1,16.1c7.7,0,12.6-5.3,12.6-5.3l3.1,4.1c0,0-5.6,6.5-15.8,6.5c-12.2,0-20.8-9.3-20.8-21.3
			C481.2,46.7,490.1,37.7,502,37.7z"/>
		<path fill="#FFFFFF" d="M546.8,38.4h12.5c4.3,0,6.1,0.3,7.6,0.9c4.2,1.6,6.9,5.7,6.9,11c0,5.2-2.9,9.6-7.3,11v0.1
			c0,0,0.5,0.5,1.2,1.8l8.7,15.8h-6.5L561.2,63h-8.7v16.2h-5.7V38.4z M560.7,58c4.4,0,7.2-2.8,7.2-7.4c0-3-1.2-5.1-3.2-6.3
			c-1.1-0.6-2.4-0.9-5.6-0.9h-6.6V58H560.7z"/>
		<path fill="#FFFFFF" d="M604.9,38.4h23.6v5h-17.9v12.7h14.6v5h-14.6v13.1h18.9v5h-24.6V38.4z"/>
		<path fill="#FFFFFF" d="M679.3,67.4H664l-4,11.7h-5.9l14.6-40.7h6l14.6,40.7h-5.9L679.3,67.4z M671.6,44c0,0-0.9,3.7-1.6,5.8
			l-4.6,12.9h12.3l-4.5-12.9c-0.7-2.1-1.6-5.8-1.6-5.8H671.6z"/>
		<path fill="#FFFFFF" d="M722.7,43.4h-14v-5h33.6v5h-14v35.8h-5.7V43.4z"/>
		<path fill="#FFFFFF" d="M769.4,38.4H793v5h-17.9v12.7h14.6v5h-14.6v13.1H794v5h-24.6V38.4z"/>
	</g>
</g>
</svg>
